<svg width="277" height="148" viewBox="0 0 277 148" fill="none" xmlns="http://www.w3.org/2000/svg">
<path d="M62.2188 100.281C59.2188 100.094 55.6562 100 51.5312 100H50.0312V37.4219C51.9688 37.5781 53.3438 37.6562 54.1562 37.6562H56.0781C58.5469 37.6562 60.5938 37.5312 62.2188 37.2812V62.2656H84.25V37.4219C86.8438 37.5781 89.3594 37.6562 91.7969 37.6562C94.2656 37.6562 95.8125 37.5312 96.4375 37.2812V100.281C94.9375 100.094 91.9688 100 87.5312 100H84.25V73.5156H62.2188V100.281ZM126.156 100.281C124.656 100.094 121.766 100 117.484 100H113.734V37.4688C115.734 37.5938 117.938 37.6562 120.344 37.6562C122.75 37.6562 124.453 37.5312 125.453 37.2812L141.203 64.0469L156.344 37.2812C157.344 37.5312 159.25 37.6562 162.062 37.6562C164.875 37.6562 167.281 37.5938 169.281 37.4688V100H165.531C161.25 100 158.359 100.094 156.859 100.281V58.2812L141.531 85.7031L126.156 60.4844V100.281ZM223.328 41.125L222.438 54.9062L222.109 55C219.797 51.5312 215.859 49.2812 210.297 48.25C208.547 47.9062 206.859 47.7344 205.234 47.7344C203.641 47.7344 202.266 47.875 201.109 48.1562C199.984 48.4375 199.016 48.8438 198.203 49.375C196.484 50.5 195.625 51.9688 195.625 53.7812C195.625 56.1562 196.375 57.9375 197.875 59.125C199.75 60.5625 202.859 61.5781 207.203 62.1719C211.547 62.7344 215.031 63.5156 217.656 64.5156C220.281 65.5156 222.438 66.7812 224.125 68.3125C227.312 71.1875 228.906 75.25 228.906 80.5C228.906 87.375 226.312 92.6719 221.125 96.3906C216.688 99.5781 211.094 101.172 204.344 101.172C198.906 101.172 193.531 100.141 188.219 98.0781C186.469 97.3906 184.938 96.5938 183.625 95.6875L184.141 80.0312L184.328 79.8906C188.203 86.5781 194.562 89.9219 203.406 89.9219C209.688 89.9219 213.844 88.4062 215.875 85.375C216.562 84.3438 216.906 83.2031 216.906 81.9531C216.906 80.6719 216.703 79.625 216.297 78.8125C215.891 77.9688 215.219 77.25 214.281 76.6562C212.469 75.4688 209.422 74.6719 205.141 74.2656C200.859 73.8594 197.359 73.0938 194.641 71.9688C191.922 70.8438 189.75 69.4531 188.125 67.7969C185.188 64.7969 183.719 60.6094 183.719 55.2344C183.719 49.6719 185.672 45.1719 189.578 41.7344C193.547 38.2344 198.891 36.4844 205.609 36.4844C212.359 36.4844 218.266 38.0312 223.328 41.125Z" fill="black"/>
</svg>
